<?xml version="1.0" encoding="utf-8"?>
<!-- Generator: Adobe Illustrator 22.0.1, SVG Export Plug-In . SVG Version: 6.00 Build 0)  -->
<svg version="1.1" id="Ebene_1" xmlns="http://www.w3.org/2000/svg" xmlns:xlink="http://www.w3.org/1999/xlink" x="0px" y="0px"
	 viewBox="0 0 1024 1024" style="enable-background:new 0 0 1024 1024;" xml:space="preserve">
<style type="text/css">
	.st0{fill:none;}
	.st1{fill:#2BE6FF;}
</style>
<rect id="frame" class="st0" width="1024" height="1024"/>
<title>wasser</title>
<g id="Ebene_2_1_">
	<path class="st1" d="M246.9,143.6c13.6,16.4,34.2,41.2,74.3,41.2s60.6-24.8,74.3-41.2c12.3-14.8,15-16.3,21.1-16.3
		s8.9,1.5,21.1,16.3c13.6,16.4,34.2,41.2,74.3,41.2s60.6-24.8,74.3-41.2c12.2-14.8,15-16.3,21.1-16.3s8.9,1.5,21.1,16.3
		c13.6,16.4,34.2,41.2,74.3,41.2c39.9,0,60.5-24.6,74.1-41l0.8-1l0.8-0.9c12.4-14.5,10.6-36.3-3.9-48.7s-36.3-10.6-48.7,3.9
		c-0.1,0.1-0.1,0.1-0.2,0.2l-1.4,1.8l-0.5,0.6c-12.2,14.7-14.9,16.2-21.1,16.2s-8.9-1.5-21.1-16.3c-13.6-16.5-34.2-41.3-74.3-41.3
		S546.7,83.1,533,99.5c-12.2,14.8-15,16.3-21.1,16.3s-8.9-1.5-21.1-16.3c-13.6-16.4-34.2-41.2-74.3-41.2S356,83.1,342.3,99.5
		c-12.2,14.8-15,16.3-21.1,16.3s-8.9-1.5-21.1-16.3l-1.6-2C285.8,83.3,264,82,249.8,94.6c-13.6,12.1-15.5,32.7-4.3,47.1L246.9,143.6
		z"/>
	<path class="st1" d="M106.5,310.8L106.5,310.8c7.8,2.2,15.8,3.3,23.9,3.3c39.8,0,60.3-24.1,73.9-40c12.3-14.4,15-15.8,21.5-15.8
		s9.2,1.5,21.4,15.8c13.6,15.9,34.2,40,73.9,40s60.3-24.1,73.9-40c12.3-14.4,15-15.8,21.5-15.8s9.2,1.5,21.5,15.8
		c13.6,15.9,34.2,40,73.9,40s60.3-24.1,73.9-40c12.3-14.4,15-15.8,21.5-15.8s9.2,1.5,21.5,15.8c13.6,15.9,34.2,40,73.9,40
		s60.3-24.1,73.9-40c12.3-14.4,15-15.8,21.5-15.8s9.2,1.5,21.5,15.8c13.6,15.9,34.2,40,73.9,40c8.1,0,16.2-1.1,23.9-3.3
		c18.4-5.1,29.1-24.1,24-42.5s-24.1-29.1-42.5-24c-0.3,0.1-0.5,0.1-0.8,0.2c-1.5,0.4-3.1,0.6-4.7,0.6c-6.4,0-9.2-1.5-21.5-15.8
		c-13.6-15.9-34.2-40-73.9-40s-60.3,24.1-73.9,40c-12.3,14.4-15,15.8-21.5,15.8s-9.2-1.5-21.5-15.8c-13.6-15.9-34.2-40-73.9-40
		s-60.3,24.1-73.9,40c-12.3,14.4-15,15.8-21.5,15.8s-9.2-1.5-21.5-15.8c-13.6-15.9-34.2-40-73.9-40s-60.3,24.1-73.9,40
		c-12.3,14.4-15,15.8-21.5,15.8s-9.2-1.5-21.5-15.8c-13.6-15.9-34.2-40-73.9-40s-60.3,24.1-73.9,40c-12.3,14.4-15,15.8-21.5,15.8
		c-1.6,0-3.2-0.2-4.7-0.6c-18.3-5.5-37.5,4.9-43,23.2s4.9,37.5,23.2,43C106.1,310.7,106.3,310.8,106.5,310.8L106.5,310.8z"/>
	<path class="st1" d="M56.8,404.6L56.8,404.6c13.6,15.4,34.2,38.8,73.6,38.8s60-23.3,73.6-38.8c11.8-13.4,14.6-15.4,21.8-15.4
		s10,2,21.8,15.4c13.6,15.4,34.2,38.8,73.6,38.8s60-23.3,73.6-38.8c11.8-13.4,14.6-15.4,21.8-15.4s10,2,21.8,15.4
		c13.6,15.4,34.2,38.8,73.6,38.8s60-23.3,73.6-38.8c11.8-13.4,14.6-15.4,21.8-15.4s10,2,21.8,15.4c13.6,15.4,34.2,38.8,73.6,38.8
		s60-23.3,73.6-38.8c11.8-13.4,14.6-15.4,21.8-15.4s10,2,21.8,15.4c13.6,15.4,34.2,38.8,73.6,38.8s60-23.3,73.6-38.8
		c2.7-3,5.2-5.9,7.6-8.3c13.5-13.5,13.4-35.4-0.1-48.8c-6.5-6.4-15.2-10.1-24.4-10.1h-0.1c-9.2,0-17.9,3.7-24.4,10.2
		c-3.9,3.9-7.2,7.7-10.5,11.4c-11.8,13.4-14.6,15.4-21.8,15.4s-10-2-21.8-15.4c-13.6-15.4-34.2-38.8-73.6-38.8s-60,23.3-73.6,38.8
		c-11.8,13.4-14.6,15.4-21.8,15.4s-10-2-21.8-15.4c-13.6-15.4-34.2-38.8-73.6-38.8s-60,23.3-73.6,38.8
		c-11.8,13.4-14.6,15.4-21.8,15.4s-10-2-21.8-15.4c-13.6-15.4-34.2-38.8-73.6-38.8s-60,23.3-73.6,38.8
		c-11.8,13.4-14.6,15.4-21.8,15.4s-10-2-21.8-15.4c-13.6-15.4-34.1-38.8-73.6-38.8s-60,23.3-73.6,38.8
		c-11.8,13.4-14.6,15.4-21.8,15.4s-10-2-21.8-15.4c-3.2-3.7-6.6-7.5-10.4-11.3c-13.4-13.5-35.3-13.6-48.8-0.1
		c-13.5,13.4-13.6,35.3-0.1,48.8C51.6,398.8,54.1,401.6,56.8,404.6z"/>
	<path class="st1" d="M1004,477.1c-6.3-18-26-27.4-44-21.1c-21.2,7.5-34.5,22.1-44.2,32.8c-11.4,12.5-14.3,14.9-22.2,14.9
		s-11-2.6-22.2-14.9c-13.6-15-34.1-37.5-73.2-37.5s-59.7,22.6-73.2,37.6c-11.2,12.3-14.3,14.9-22.2,14.9s-11-2.6-22.2-14.9
		c-13.6-15-34.1-37.5-73.2-37.5s-59.7,22.6-73.2,37.5c-11.2,12.3-14.4,14.9-22.2,14.9s-11-2.6-22.2-14.9
		c-13.6-15-34.1-37.5-73.2-37.5s-59.7,22.6-73.2,37.5c-11.2,12.3-14.3,14.9-22.2,14.9s-11-2.6-22.1-14.9
		c-13.6-15-34.1-37.5-73.2-37.5s-59.7,22.6-73.2,37.5c-11.2,12.3-14.3,14.9-22.2,14.9s-11-2.6-22.2-14.9
		c-9.7-10.7-23-25.3-44.2-32.8c-18-6.2-37.7,3.4-43.9,21.4c-6.2,17.9,3.2,37.4,21,43.7c4.5,1.6,9,6.4,16,14.1
		c13.6,15,34.1,37.5,73.2,37.5s59.7-22.6,73.2-37.5c11.2-12.3,14.3-14.9,22.2-14.9s11,2.6,22.1,14.9c13.6,15,34.1,37.5,73.3,37.5
		s59.7-22.6,73.2-37.5c11.2-12.3,14.3-14.9,22.2-14.9s11,2.6,22.2,14.9c13.6,15,34.1,37.5,73.2,37.5s59.7-22.6,73.2-37.5
		c11.2-12.3,14.3-14.9,22.2-14.9s11,2.6,22.2,14.9c13.6,15,34.1,37.5,73.2,37.5s59.7-22.6,73.2-37.5c11.2-12.3,14.3-14.9,22.2-14.9
		s11,2.6,22.2,14.9c13.6,15,34.1,37.5,73.2,37.5s59.7-22.6,73.3-37.5c7-7.7,11.5-12.5,16-14.1C1000.8,514.8,1010.3,495.1,1004,477.1
		L1004,477.1z"/>
	<path class="st1" d="M937.1,599c-8.6,6.3-15.2,13.3-21,19.5c-11.2,12-14.4,14.5-22.5,14.5s-11.3-2.6-22.5-14.5
		c-13.6-14.5-34.1-36.3-72.9-36.3s-59.3,21.8-72.9,36.3c-11.2,12-14.4,14.5-22.5,14.5s-11.3-2.6-22.5-14.5
		c-13.6-14.5-34.1-36.3-72.9-36.3s-59.3,21.8-72.9,36.3c-11.2,12-14.4,14.5-22.5,14.5s-11.3-2.6-22.5-14.5
		c-13.6-14.5-34.1-36.3-72.9-36.3s-59.3,21.8-72.9,36.3c-11.2,12-14.4,14.5-22.5,14.5s-11.3-2.6-22.5-14.5
		c-13.6-14.5-34.1-36.3-72.9-36.3s-59.3,21.8-72.9,36.3c-11.2,12-14.4,14.5-22.5,14.5s-11.3-2.6-22.5-14.5
		c-5.8-6.2-12.4-13.2-21-19.5c-15.4-11.3-37-8-48.3,7.4s-8,37,7.4,48.3l0,0c3.5,2.6,7.4,6.7,11.5,11.1
		c13.6,14.5,34.1,36.3,72.9,36.3s59.3-21.8,72.9-36.3c11.2-12,14.4-14.5,22.5-14.5s11.3,2.6,22.5,14.5
		c13.6,14.5,34.1,36.3,72.9,36.3s59.3-21.8,72.9-36.3c11.2-12,14.4-14.5,22.5-14.5s11.3,2.6,22.5,14.5
		c13.6,14.5,34.1,36.3,72.9,36.3s59.3-21.8,72.9-36.3c11.2-12,14.4-14.5,22.5-14.5s11.3,2.6,22.5,14.5
		c13.6,14.5,34.1,36.3,72.9,36.3s59.3-21.8,72.9-36.3c11.2-12,14.4-14.5,22.5-14.5s11.3,2.6,22.5,14.5
		c13.6,14.5,34.1,36.3,72.9,36.3s59.3-21.8,72.9-36.3c4.1-4.4,8-8.6,11.5-11.1c15.4-11.3,18.7-32.9,7.4-48.3S952.5,587.7,937.1,599
		L937.1,599z"/>
	<path class="st1" d="M886.6,761.4c-4.4-1.5-8.4-5.3-16-13.1c-13.5-14-34-35.1-72.5-35.1s-58.9,21.1-72.5,35.1
		c-11.3,11.6-14.5,14.1-22.9,14.1s-11.7-2.5-22.9-14.1c-13.5-14-34-35.1-72.5-35.1s-58.9,21.1-72.5,35.1
		c-11.3,11.6-14.5,14.1-22.9,14.1s-11.7-2.5-22.9-14.1c-13.5-14-34-35.1-72.5-35.1s-58.9,21.1-72.5,35.1
		c-11.3,11.6-14.5,14.1-22.9,14.1s-11.7-2.5-22.9-14.1c-13.5-14-34-35.1-72.5-35.1s-58.9,21.1-72.5,35.1c-7.6,7.8-11.6,11.6-16,13.1
		c-18,6.2-27.6,25.8-21.4,43.9c6.2,18,25.8,27.6,43.9,21.4c20.4-7,33.5-20.5,43.1-30.3c11.3-11.6,14.5-14.1,22.9-14.1
		s11.7,2.5,22.9,14.1c13.5,14,34,35.1,72.5,35.1s58.9-21.1,72.5-35.1c11.3-11.6,14.5-14.1,22.9-14.1s11.7,2.5,22.9,14.1
		c13.5,14,34,35.1,72.5,35.1s58.9-21.1,72.5-35.1c11.3-11.6,14.5-14.1,22.9-14.1s11.7,2.5,22.9,14.1c13.5,14,34,35.1,72.5,35.1
		s58.9-21.1,72.5-35.1c11.3-11.6,14.5-14.1,22.9-14.1s11.7,2.5,22.9,14.1c9.5,9.8,22.6,23.3,43.1,30.3c18,6.4,37.7-3,44.1-20.9
		c6.4-18-3-37.7-20.9-44.1C887,761.6,886.8,761.5,886.6,761.4L886.6,761.4z"/>
	<path class="st1" d="M783.7,845.3L783.7,845.3c-29,4.3-46.2,21.5-57.6,32.8c-2.4,2.3-4.6,4.6-6.7,6.5l-0.1,0.1
		c-5.2,4.6-8,5.9-11,6.6l-0.4,0.1c-1.7,0.3-3.4,0.5-5.1,0.4c-8.8,0-12-2.4-23.3-13.7c-13.5-13.5-33.9-33.8-72-33.8
		s-58.5,20.3-72.1,33.8c-11.4,11.3-14.6,13.7-23.4,13.7s-12-2.4-23.3-13.7c-13.5-13.5-34-33.8-72.1-33.8s-58.5,20.3-72,33.8
		c-11.4,11.3-14.6,13.7-23.4,13.7c-1.7,0-3.4-0.1-5.1-0.4h-0.2c-3.1-0.6-6-1.9-11.2-6.6l-0.1-0.1c-2.1-1.9-4.3-4.1-6.7-6.5
		c-11.4-11.3-28.5-28.4-57.6-32.8c-18.9-2.7-36.3,10.5-39,29.4c-2.6,18.7,10.2,36,28.8,38.9c5.5,0.8,9.1,3.6,16.7,11.1v8.5L263,940
		c11.5,9.7,25.2,16.4,40,19.2l3.2,0.6h0.4c4.8,0.7,9.7,1.1,14.5,1.1c38.1,0,58.5-20.3,72.1-33.8c11.3-11.3,14.6-13.7,23.3-13.7
		s12,2.4,23.4,13.7c13.5,13.5,34,33.8,72.1,33.8s58.5-20.3,72-33.8c11.3-11.3,14.6-13.7,23.3-13.7s12,2.4,23.3,13.7
		c13.5,13.5,34,33.8,72.1,33.8c5.1,0,10.2-0.4,15.3-1.2l2.9-0.5c21.3-4.1,35.1-14.6,44.8-23.3l0.5-0.5c3.1-2.8,5.9-5.6,8.5-8.3
		c9.2-9.2,13-12.5,19.1-13.4c18.8-3,31.7-20.6,28.7-39.5C819.6,855.5,802.3,842.7,783.7,845.3L783.7,845.3z"/>
</g>
</svg>
